<svg width="187" height="68" viewBox="0 0 187 68" fill="none" xmlns="http://www.w3.org/2000/svg">
<g clip-path="url(#clip0_2228_311)">
<path d="M14.8399 17.2216C15.1913 16.986 15.4766 16.6639 15.6684 16.2861C15.8602 15.9083 15.9521 15.4875 15.9354 15.0639C15.9378 14.6088 15.8325 14.1597 15.6282 13.7533C15.4239 13.347 15.1265 12.995 14.7602 12.7264C13.8561 12.0626 12.7519 11.7311 11.6329 11.7874C10.7872 11.7422 9.94334 11.9062 9.1757 12.2651C8.40805 12.6239 7.74015 13.1665 7.2308 13.8452C6.20829 15.2171 5.69703 17.1417 5.69703 19.619V23.6147C5.59911 25.6168 6.11341 27.6011 7.17104 29.3019C7.64725 30.0024 8.29473 30.5687 9.05153 30.9464C9.80833 31.3242 10.6491 31.5009 11.4935 31.4595C13.2279 31.52 14.9325 30.9947 16.3338 29.9678C17.649 28.9838 18.5397 27.5331 18.8237 25.9122H19.74C19.4344 27.7766 18.4473 29.4599 16.9712 30.6338C15.442 31.8244 13.5481 32.4458 11.613 32.3919C10.248 32.4233 8.89118 32.1729 7.62675 31.6562C6.36233 31.1396 5.21732 30.3676 4.26286 29.3884C2.28423 27.4039 1.29492 24.7867 1.29492 21.5369C1.29492 18.2871 2.31743 15.7032 4.36245 13.7853C6.30756 11.9065 8.91282 10.8728 11.613 10.9084C13.6955 10.8408 15.7435 11.4531 17.4493 12.6532C18.1755 13.1277 18.7726 13.7761 19.1864 14.54C19.6002 15.3039 19.8179 16.1591 19.8196 17.0284C19.8684 17.756 19.6299 18.4736 19.1557 19.0263C18.9249 19.2601 18.6481 19.4431 18.3428 19.5635C18.0376 19.6839 17.7106 19.7391 17.3829 19.7255C17.0478 19.736 16.7141 19.6776 16.4024 19.554C16.0907 19.4303 15.8075 19.2439 15.5702 19.0063C15.3338 18.7743 15.1471 18.4964 15.0215 18.1895C14.8959 17.8826 14.8341 17.5532 14.8399 17.2216Z" fill="white"/>
<path d="M35.8551 28.0095C35.2048 29.3539 34.1628 30.4685 32.8672 31.206C31.5102 31.9861 29.9693 32.3863 28.4054 32.3648C26.9352 32.4262 25.4922 31.9533 24.3419 31.0329C23.8132 30.5836 23.3945 30.0184 23.1182 29.381C22.8419 28.7436 22.7154 28.0511 22.7484 27.3569C22.673 26.0555 23.0226 24.7649 23.7443 23.6808C24.4488 22.7578 25.3582 22.0122 26.4002 21.5032C28.339 20.5442 31.0081 20.0647 34.4077 20.0647H35.8551V16.2688C35.8551 13.2854 34.5006 11.7936 31.7916 11.7936C30.7493 11.7602 29.7236 12.0611 28.8635 12.6527C28.5263 12.8548 28.2442 13.1376 28.0426 13.4758C27.841 13.814 27.726 14.197 27.7081 14.5906C27.6939 14.9264 27.7978 15.2564 28.0017 15.5231C28.2056 15.7897 28.4967 15.9759 28.8237 16.049C28.8236 16.3784 28.7564 16.7042 28.6262 17.0065C28.496 17.3088 28.3057 17.5813 28.0668 17.8072C27.8355 18.0498 27.5571 18.2423 27.2488 18.3729C26.9405 18.5035 26.6087 18.5693 26.2741 18.5663C25.9467 18.5724 25.6216 18.5098 25.3198 18.3825C25.0179 18.2552 24.7459 18.066 24.5212 17.8271C24.2842 17.5838 24.0985 17.295 23.9753 16.978C23.8521 16.6611 23.7939 16.3225 23.8041 15.9825C23.8058 15.25 24.0382 14.5368 24.4681 13.9447C24.9404 13.2875 25.5442 12.7363 26.2409 12.3264C27.9307 11.3407 29.8646 10.8558 31.8182 10.9279C37.1653 10.9146 39.8389 12.959 39.8389 17.0613V29.3014C39.8389 30.5001 40.3303 31.0995 41.3129 31.0995C42.2956 31.0995 42.7869 30.5268 42.7869 29.3813H43.6235C43.6439 29.793 43.5721 30.204 43.4136 30.5842C43.255 30.9645 43.0137 31.3044 42.7073 31.579C41.9499 32.1634 41.0045 32.4479 40.0514 32.3781C38.9848 32.3887 37.9518 32.0046 37.1498 31.2993C36.7097 30.8774 36.3659 30.3649 36.1424 29.7969C35.9189 29.2289 35.8209 28.6191 35.8551 28.0095ZM35.8551 25.1725V21.057H34.401C32.5609 20.9938 30.7473 21.5109 29.2154 22.5354C27.8211 23.521 27.1239 25.026 27.1239 27.0505C27.0757 27.5189 27.1332 27.9922 27.2922 28.4353C27.4513 28.8783 27.7077 29.2798 28.0425 29.6099C28.3774 29.9399 28.782 30.1902 29.2264 30.342C29.6709 30.4938 30.1437 30.5433 30.6098 30.4868C31.8765 30.4414 33.082 29.9293 33.9959 29.0484C35.1011 28.053 35.7694 26.6599 35.8551 25.1725Z" fill="white"/>
<path d="M53.2041 32.3645C47.8348 32.3645 45.1502 30.8861 45.1502 27.9293C45.1256 27.205 45.3613 26.496 45.8141 25.9314C46.0069 25.6736 46.2564 25.4638 46.5431 25.3182C46.8298 25.1727 47.1461 25.0954 47.4674 25.0923C47.9996 25.0418 48.5324 25.1829 48.9704 25.4904C49.4083 25.7979 49.7229 26.2517 49.8577 26.7705C49.4321 27.2252 49.1947 27.8251 49.1937 28.4487C49.1648 28.8962 49.2438 29.3441 49.4241 29.7545C49.6044 30.1649 49.8807 30.5256 50.2295 30.8062C51.1922 31.4119 52.3233 31.692 53.4564 31.6053C54.8125 31.637 56.144 31.2385 57.261 30.4665C57.7305 30.1932 58.1242 29.8062 58.4061 29.3408C58.6879 28.8755 58.8489 28.3466 58.8744 27.8027C58.9032 27.3577 58.8176 26.9128 58.6258 26.5105C58.434 26.1082 58.1423 25.762 57.7788 25.5052C56.6534 24.8235 55.4404 24.2992 54.1735 23.9469L49.0344 22.3087C46.6441 21.6161 45.449 19.858 45.449 17.0344C45.4372 16.193 45.6186 15.3603 45.9789 14.6005C46.3393 13.8407 46.869 13.1741 47.5272 12.6524C49.0451 11.4425 50.9486 10.8251 52.8854 10.9143C54.6825 10.8192 56.4718 11.2127 58.0644 12.0531C58.6178 12.3304 59.0849 12.7544 59.415 13.2792C59.7451 13.804 59.9255 14.4095 59.9367 15.0299C59.9491 15.6738 59.7109 16.2972 59.2728 16.768C59.0845 16.9835 58.8528 17.1567 58.5931 17.2761C58.3333 17.3954 58.0513 17.4583 57.7656 17.4606C57.2414 17.4893 56.7246 17.326 56.3115 17.0011C56.1326 16.8459 55.9912 16.6519 55.898 16.4339C55.8049 16.2158 55.7623 15.9794 55.7737 15.7424C56.0371 15.5791 56.2531 15.3491 56.3999 15.0756C56.5468 14.802 56.6193 14.4946 56.6103 14.1841C56.6103 12.5059 55.4018 11.6668 52.985 11.6668C51.5441 11.5908 50.1139 11.9529 48.8817 12.7057C48.4495 12.9412 48.0839 13.2829 47.8192 13.6987C47.5544 14.1144 47.3991 14.5908 47.3678 15.0831C47.3069 15.7731 47.4981 16.4618 47.9056 17.021C48.5039 17.5559 49.221 17.9395 49.9971 18.1398L56.3314 20.0977C57.6415 20.4266 58.8078 21.1776 59.6512 22.2354C60.3848 23.382 60.7402 24.7309 60.6671 26.0913C60.6633 26.9044 60.4975 27.7086 60.1794 28.4565C59.8613 29.2045 59.3973 29.8811 58.8146 30.4466C57.5443 31.7252 55.6741 32.3645 53.2041 32.3645Z" fill="white"/>
<path d="M63.123 0.799138V0H69.8955V15.5832C72.0468 12.4754 74.6363 10.9216 77.664 10.9216C79.2963 10.8263 80.9064 11.3384 82.1856 12.36C83.2878 13.319 83.8389 14.7441 83.8389 16.6354V30.7668L86.6275 31.1664V31.9655H77.4648V31.1664L79.855 30.7668V16.702C79.855 13.7985 78.713 12.3467 76.429 12.3467C75.1361 12.3714 73.8912 12.8417 72.9033 13.6786C71.733 14.6236 70.718 15.7472 69.8955 17.0083V30.7668L72.2858 31.1664V31.9655H63.123V31.1664L65.9117 30.7668V1.19871L63.123 0.799138Z" fill="white"/>
<path d="M101.885 31.9658V31.1667L104.275 30.7671V16.7023C104.275 13.7988 103.199 12.347 101.048 12.347C98.9766 12.347 96.998 13.6789 95.1123 16.3427V30.7671L97.5026 31.1667V31.9658H88.3066V31.1667L91.0953 30.7671V12.4669L88.3066 12.0673V11.2682H95.0791V14.9442C97.1241 12.2538 99.5144 10.9086 102.25 10.9086C105.623 10.9086 107.588 12.3204 108.146 15.144C110.191 12.3204 112.626 10.9086 115.45 10.9086C117.043 10.8101 118.614 11.3165 119.852 12.327C120.901 13.2727 121.425 14.7045 121.425 16.6224V30.7671L124.214 31.1667V31.9658H115.051V31.1667L117.442 30.7671V16.7023C117.442 13.7988 116.366 12.347 114.215 12.347C112.143 12.347 110.164 13.6789 108.279 16.3427V30.7671L110.669 31.1667V31.9658H101.885Z" fill="white"/>
<path d="M136.984 31.4856C137.897 31.4922 138.805 31.3505 139.673 31.066C140.483 30.8005 141.244 30.4022 141.924 29.8873C143.271 28.9424 144.199 27.5098 144.513 25.8916H145.41C145.111 27.7755 144.104 29.4727 142.594 30.6332C140.995 31.8197 139.045 32.4319 137.057 32.3713C135.668 32.4096 134.286 32.1676 132.993 31.6597C131.699 31.1518 130.521 30.3882 129.527 29.4145C127.536 27.4433 126.54 24.8461 126.54 21.6229C126.49 20.1954 126.729 18.7726 127.243 17.4403C127.756 16.1081 128.533 14.894 129.527 13.8712C130.473 12.8955 131.61 12.1285 132.868 11.6194C134.126 11.1102 135.476 10.8701 136.831 10.9144C137.981 10.8635 139.13 11.0507 140.205 11.4643C141.279 11.8779 142.258 12.5091 143.079 13.3185C144.706 15.0132 145.607 17.2792 145.589 19.6317H130.922V23.5874C130.812 25.6112 131.359 27.6162 132.482 29.3013C133 30.0042 133.68 30.5704 134.464 30.9509C135.248 31.3314 136.113 31.5149 136.984 31.4856ZM136.778 11.7868C135.988 11.7469 135.2 11.8965 134.48 12.2231C133.759 12.5497 133.127 13.0439 132.635 13.6648C131.582 15.1193 130.998 16.8622 130.962 18.6594H141.2C141.2 14.0777 139.726 11.7868 136.778 11.7868Z" fill="white"/>
<path d="M148.131 31.9652V31.1661L150.92 30.7665V12.4663L148.131 12.0667V11.2676H154.903V14.3443C156.577 12.0534 158.462 10.908 160.56 10.908C161.504 10.8912 162.43 11.163 163.216 11.6871C163.564 11.8918 163.854 12.1833 164.056 12.5334C164.259 12.8835 164.367 13.2803 164.372 13.685C164.394 14.0359 164.347 14.3879 164.233 14.7205C164.119 15.0531 163.94 15.3598 163.708 15.6229C163.458 15.8568 163.163 16.0367 162.84 16.1513C162.518 16.2658 162.176 16.3127 161.835 16.2888C161.448 16.292 161.066 16.2031 160.72 16.0295C160.373 15.8558 160.073 15.6024 159.843 15.2899C160.125 14.9464 160.28 14.5159 160.281 14.0712C160.288 13.8688 160.25 13.6676 160.171 13.4813C160.091 13.295 159.973 13.1282 159.823 12.9924C159.487 12.7015 159.052 12.5513 158.608 12.5728C157.599 12.5728 156.364 13.6383 154.903 15.7694V30.7665L158.09 31.1661V31.9652H148.131Z" fill="white"/>
<path d="M176.542 31.4861C177.456 31.4926 178.364 31.3509 179.232 31.0665C180.042 30.801 180.802 30.4027 181.482 29.8878C182.829 28.9429 183.758 27.5103 184.072 25.8921H184.988C184.685 27.779 183.67 29.4767 182.153 30.6337C180.553 31.8178 178.603 32.4277 176.615 32.3651C175.227 32.4035 173.845 32.1615 172.551 31.6536C171.258 31.1456 170.08 30.3821 169.086 29.4083C167.094 27.4371 166.098 24.8399 166.098 21.6167C166.049 20.1893 166.288 18.7665 166.801 17.4342C167.315 16.1019 168.092 14.8878 169.086 13.8651C170.031 12.8894 171.169 12.1224 172.427 11.6133C173.684 11.1041 175.034 10.864 176.39 10.9083C177.54 10.8582 178.689 11.0465 179.764 11.4612C180.839 11.876 181.817 12.5084 182.638 13.319C184.264 15.0137 185.165 17.2798 185.147 19.6322H170.48V23.5879C170.37 25.6117 170.918 27.6168 172.041 29.3018C172.558 30.0047 173.238 30.5709 174.023 30.9514C174.807 31.332 175.672 31.5155 176.542 31.4861ZM176.343 11.7873C175.554 11.7475 174.766 11.897 174.045 12.2236C173.325 12.5502 172.692 13.0445 172.2 13.6653C171.147 15.1198 170.563 16.8628 170.527 18.6599H180.765C180.765 14.0782 179.289 11.7873 176.337 11.7873H176.343Z" fill="white"/>
<path d="M19.0684 59.9355H19.6195V67.8603H19.0684V59.9355Z" fill="white"/>
<path d="M23.0458 59.9355H23.6168L26.9366 65.5095L27.833 67.0812H27.8861L27.8263 65.9291C27.8263 65.5473 27.8263 65.1632 27.8263 64.777V59.9355H28.3376V67.8603H27.7666L24.4468 62.2863L23.5504 60.7147H23.5039C23.5039 61.0965 23.5194 61.4694 23.5504 61.8335C23.5814 62.1976 23.5814 62.5705 23.5504 62.9523V67.8537H23.0391L23.0458 59.9355Z" fill="white"/>
<path d="M33.4571 60.435H30.9473V59.9355H36.518V60.415H34.0082V67.8603H33.4571V60.435Z" fill="white"/>
<path d="M39.1348 59.9355H43.4373V60.415H39.6859V63.3985H42.8397V63.9312H39.6859V67.4075H43.5568V67.887H39.1348V59.9355Z" fill="white"/>
<path d="M50.7404 67.8605L48.6157 64.2311H46.9359V67.8605H46.3848V59.9358H48.629C48.9863 59.9324 49.3427 59.9704 49.6913 60.049C49.9854 60.1147 50.2631 60.2393 50.508 60.4152C50.7369 60.5885 50.9175 60.8178 51.0325 61.0812C51.1638 61.3833 51.2272 61.7107 51.2185 62.0402C51.2324 62.3107 51.1913 62.5813 51.0977 62.8355C51.0041 63.0896 50.86 63.322 50.674 63.5186C50.2674 63.8946 49.7502 64.1283 49.2 64.1845L51.3645 67.8539L50.7404 67.8605ZM48.4696 63.7716C49.0372 63.809 49.6015 63.6593 50.0764 63.3454C50.2715 63.1866 50.4244 62.9819 50.5217 62.7496C50.619 62.5172 50.6576 62.2644 50.6342 62.0135C50.6575 61.7742 50.6184 61.533 50.5206 61.3135C50.4228 61.0939 50.2697 60.9037 50.0764 60.7615C49.5833 60.4996 49.0259 60.3841 48.4696 60.4286H46.9359V63.7583L48.4696 63.7716Z" fill="white"/>
<path d="M54.1934 59.9355H54.7444V67.8603H54.1934V59.9355Z" fill="white"/>
<path d="M60.9051 67.9997C60.4457 68.0074 59.9909 67.907 59.5772 67.7067C59.1765 67.5097 58.8248 67.2253 58.548 66.8742C58.2454 66.4759 58.0202 66.0241 57.8841 65.5423C57.7183 64.9918 57.6377 64.4191 57.645 63.8442C57.6372 63.2735 57.7178 62.7051 57.8841 62.1593C58.0237 61.6931 58.2489 61.2573 58.548 60.874C58.8244 60.5276 59.1765 60.2496 59.5772 60.0616C59.9883 59.8755 60.4342 59.7793 60.8852 59.7793C61.3362 59.7793 61.7821 59.8755 62.1932 60.0616C62.5938 60.2498 62.9459 60.5277 63.2224 60.874C63.5214 61.2573 63.7466 61.6932 63.8863 62.1593C64.0524 62.7051 64.1331 63.2735 64.1255 63.8442C64.1325 64.4191 64.0518 64.9918 63.8863 65.5423C63.7502 66.0241 63.5249 66.4759 63.2224 66.8742C62.9456 67.2253 62.5939 67.5097 62.1932 67.7067C61.7919 67.9019 61.3512 68.0021 60.9051 67.9997ZM60.9051 67.4935C61.2838 67.4978 61.6578 67.4086 61.994 67.2338C62.3266 67.0566 62.6149 66.8061 62.8373 66.5013C63.0858 66.1578 63.2702 65.772 63.3817 65.3625C63.5151 64.8768 63.5799 64.3746 63.5743 63.8708C63.5796 63.3736 63.5147 62.8781 63.3817 62.399C63.2725 61.9908 63.0878 61.6068 62.8373 61.2669C62.6079 60.9859 62.3201 60.7587 61.994 60.601C61.6566 60.43 61.2831 60.3432 60.9051 60.3479C60.5251 60.3437 60.1495 60.4305 59.8096 60.601C59.483 60.7579 59.195 60.9853 58.9663 61.2669C58.7171 61.6091 58.5346 61.9955 58.4285 62.4057C58.2955 62.8847 58.2307 63.3802 58.236 63.8774C58.2303 64.3813 58.2951 64.8834 58.4285 65.3692C58.5397 65.7787 58.7242 66.1646 58.973 66.5079C59.1966 66.8142 59.4873 67.0648 59.8228 67.2405C60.1576 67.4129 60.5288 67.502 60.9051 67.5002V67.4935Z" fill="white"/>
<path d="M71.4228 67.8605L69.2981 64.2311H67.6249V67.8605H67.0605V59.9358H69.3048C69.662 59.9324 70.0185 59.9704 70.3671 60.049C70.6611 60.1147 70.9389 60.2393 71.1838 60.4152C71.4126 60.5885 71.5933 60.8178 71.7083 61.0812C71.8395 61.3833 71.903 61.7107 71.8942 62.0402C71.9082 62.3107 71.8671 62.5813 71.7735 62.8355C71.6799 63.0896 71.5357 63.322 71.3498 63.5186C70.9432 63.8946 70.426 64.1283 69.8758 64.1845L72.0403 67.8539L71.4228 67.8605ZM69.1786 63.7716C69.7462 63.809 70.3104 63.6593 70.7854 63.3454C70.9804 63.1866 71.1334 62.9819 71.2307 62.7496C71.3279 62.5172 71.3666 62.2644 71.3431 62.0135C71.3665 61.7742 71.3274 61.533 71.2296 61.3135C71.1318 61.0939 70.9787 60.9037 70.7854 60.7615C70.2957 60.488 69.7381 60.3609 69.1786 60.3953H67.6249V63.725L69.1786 63.7716Z" fill="white"/>
<path d="M78.4531 59.9356H80.2724C80.8117 59.9236 81.3484 60.0163 81.8526 60.2087C82.2948 60.3831 82.6871 60.6645 82.9946 61.0278C83.2987 61.3878 83.5248 61.8074 83.6586 62.2598C83.8116 62.7852 83.8855 63.3307 83.8777 63.878C83.8848 64.4319 83.811 64.9838 83.6586 65.5163C83.5272 65.9776 83.301 66.4063 82.9946 66.7749C82.6942 67.1282 82.3141 67.4044 81.8858 67.5807C81.3828 67.7784 80.8456 67.8734 80.3056 67.8604H78.4797L78.4531 59.9356ZM80.2126 67.3676C80.686 67.3786 81.1564 67.2902 81.5937 67.1079C81.966 66.9467 82.2941 66.6977 82.5498 66.382C82.8093 66.0558 82.9991 65.6795 83.1075 65.2765C83.2315 64.8141 83.2918 64.3369 83.2868 63.858C83.292 63.3836 83.2317 62.9107 83.1075 62.4529C83.0002 62.0536 82.8101 61.6815 82.5498 61.3607C82.2916 61.0525 81.9638 60.8105 81.5937 60.6548C81.1554 60.4767 80.6854 60.3906 80.2126 60.4018H79.0108V67.3676H80.2126Z" fill="white"/>
<path d="M86.8066 59.9355H91.1091V60.415H87.3577V63.3985H90.5116V63.9312H87.3577V67.4075H91.2286V67.887H86.8066V59.9355Z" fill="white"/>
<path d="M93.7981 66.4284C94.0846 66.7557 94.4348 67.0209 94.8272 67.2075C95.2294 67.3996 95.6699 67.4975 96.1153 67.4939C96.6279 67.5201 97.1333 67.3645 97.5429 67.0544C97.714 66.9179 97.8511 66.7434 97.9433 66.5446C98.0355 66.3457 98.0803 66.1281 98.074 65.9089C98.0811 65.6946 98.0426 65.4812 97.9612 65.2829C97.8878 65.1185 97.7842 64.9694 97.6557 64.8434C97.5217 64.7134 97.3696 64.6035 97.2042 64.5171L96.6531 64.2507L95.458 63.7113C95.2898 63.6403 95.1127 63.5515 94.9268 63.4449C94.7388 63.3388 94.5667 63.2065 94.4156 63.052C94.2569 62.891 94.1267 62.7041 94.0305 62.4993C93.9224 62.2612 93.8702 62.0015 93.8778 61.7401C93.874 61.4683 93.933 61.1993 94.0504 60.9543C94.1652 60.7187 94.3281 60.51 94.5284 60.3416C94.7428 60.1644 94.9882 60.0289 95.2522 59.942C95.5452 59.8428 95.8526 59.7933 96.1618 59.7955C96.605 59.7863 97.044 59.8821 97.4433 60.0752C97.788 60.2403 98.1005 60.4658 98.3662 60.7412L98.0408 61.1141C97.8108 60.8668 97.5359 60.6656 97.2308 60.5214C96.8976 60.3693 96.5345 60.2942 96.1684 60.3017C95.7159 60.2791 95.2697 60.4157 94.9069 60.6879C94.7532 60.8109 94.6304 60.9684 94.5486 61.1477C94.4667 61.327 94.4279 61.5231 94.4355 61.7201C94.4294 61.9236 94.4751 62.1253 94.5683 62.3062C94.6528 62.463 94.7654 62.6029 94.9003 62.719C95.0368 62.8355 95.186 62.936 95.3451 63.0187L95.7966 63.2385L96.9918 63.7646C97.2062 63.8606 97.4146 63.9696 97.6159 64.0909C97.8089 64.2063 97.9853 64.3474 98.1404 64.5104C98.2961 64.6773 98.4199 64.8714 98.5056 65.0832C98.6035 65.3333 98.6508 65.6004 98.6451 65.869C98.6476 66.1606 98.5864 66.4493 98.4658 66.7147C98.3477 66.9708 98.1755 67.198 97.9612 67.3807C97.7259 67.5784 97.4556 67.7298 97.1644 67.8269C96.8283 67.9382 96.4759 67.9922 96.122 67.9867C95.5968 67.9974 95.0763 67.8857 94.6015 67.6604C94.173 67.4505 93.7896 67.1587 93.4727 66.8013L93.7981 66.4284Z" fill="white"/>
<path d="M101.4 59.9355H101.951V67.8603H101.4V59.9355Z" fill="white"/>
<path d="M104.868 63.8914C104.86 63.3176 104.946 62.7464 105.12 62.1998C105.27 61.7287 105.512 61.2919 105.83 60.9146C106.121 60.5651 106.487 60.2852 106.899 60.0954C107.349 59.9044 107.832 59.8092 108.32 59.8157C108.564 59.8145 108.807 59.8436 109.044 59.9023C109.249 59.9527 109.447 60.0264 109.635 60.1221C109.8 60.208 109.956 60.3106 110.1 60.4284C110.226 60.5315 110.346 60.6427 110.458 60.7614L110.133 61.121C109.918 60.8928 109.666 60.7015 109.389 60.555C109.056 60.3887 108.686 60.3085 108.314 60.3219C107.893 60.3146 107.476 60.4011 107.092 60.5749C106.76 60.7411 106.468 60.9773 106.235 61.2675C105.973 61.5995 105.776 61.9794 105.658 62.3863C105.515 62.8682 105.446 63.3688 105.452 63.8714C105.446 64.3752 105.511 64.8774 105.644 65.3631C105.756 65.7741 105.948 66.1589 106.209 66.4952C106.451 66.8031 106.76 67.0513 107.112 67.2211C107.487 67.3984 107.899 67.4873 108.314 67.4808C108.654 67.4841 108.992 67.4324 109.316 67.3276C109.598 67.2395 109.854 67.0868 110.067 66.8815V64.4441H108.187V63.9779H110.591V67.1079C110.321 67.3955 109.992 67.6224 109.628 67.7738C109.194 67.9497 108.729 68.0357 108.261 68.0269C107.785 68.033 107.314 67.9353 106.879 67.7405C106.466 67.5525 106.1 67.2724 105.81 66.9214C105.509 66.5371 105.284 66.0986 105.147 65.6295C104.962 65.0687 104.868 64.4819 104.868 63.8914Z" fill="white"/>
<path d="M113.705 59.9355H114.276L117.596 65.5095L118.492 67.0812H118.538L118.492 65.9291C118.492 65.5473 118.492 65.1632 118.492 64.777V59.9355H119.003V67.8603H118.432L115.112 62.2863L114.203 60.7147H114.156C114.156 61.0965 114.172 61.4694 114.203 61.8335C114.234 62.1976 114.234 62.5705 114.203 62.9523V67.8537H113.691L113.705 59.9355Z" fill="white"/>
<path d="M125.728 66.4284C126.014 66.756 126.364 67.0212 126.757 67.2075C127.159 67.3996 127.599 67.4975 128.045 67.4939C128.557 67.5201 129.063 67.3645 129.472 67.0544C129.644 66.9179 129.781 66.7434 129.873 66.5446C129.965 66.3457 130.01 66.1281 130.004 65.9089C130.011 65.6946 129.972 65.4812 129.891 65.2829C129.818 65.1183 129.714 64.9691 129.585 64.8434C129.451 64.7134 129.299 64.6035 129.134 64.5171L128.583 64.2507L127.388 63.7113C127.206 63.6315 127.029 63.5426 126.856 63.4449C126.669 63.3385 126.496 63.2063 126.345 63.052C126.187 62.8905 126.057 62.7037 125.96 62.4993C125.852 62.2612 125.8 62.0015 125.807 61.7401C125.803 61.4682 125.862 61.1992 125.98 60.9543C126.095 60.7187 126.258 60.51 126.458 60.3416C126.672 60.1643 126.918 60.0287 127.182 59.942C127.475 59.8428 127.782 59.7933 128.091 59.7955C128.535 59.7863 128.974 59.8821 129.373 60.0752C129.718 60.2401 130.03 60.4656 130.296 60.7412L129.97 61.1141C129.74 60.8668 129.465 60.6656 129.16 60.5214C128.827 60.3693 128.464 60.2942 128.098 60.3017C127.646 60.2791 127.199 60.4157 126.836 60.6879C126.683 60.8109 126.56 60.9684 126.478 61.1477C126.396 61.327 126.358 61.5231 126.365 61.7201C126.359 61.9236 126.405 62.1252 126.498 62.3062C126.582 62.463 126.695 62.6029 126.83 62.719C126.966 62.8353 127.116 62.9359 127.275 63.0187L127.726 63.2385L128.921 63.7646C129.136 63.8605 129.344 63.9694 129.545 64.0909C129.739 64.2061 129.915 64.3473 130.07 64.5104C130.226 64.6771 130.35 64.8713 130.435 65.0832C130.534 65.333 130.581 65.6003 130.575 65.869C130.577 66.1606 130.516 66.4493 130.395 66.7147C130.277 66.9707 130.105 67.1979 129.891 67.3807C129.655 67.5781 129.385 67.7295 129.094 67.8269C128.758 67.9381 128.405 67.9921 128.052 67.9867C127.526 67.9974 127.006 67.8857 126.531 67.6604C126.103 67.4502 125.719 67.1585 125.402 66.8013L125.728 66.4284Z" fill="white"/>
<path d="M134.785 60.435H132.275V59.9355H137.833V60.415H135.336V67.8603H134.785V60.435Z" fill="white"/>
<path d="M140.43 59.9355H140.982V64.7437C140.967 65.1941 141.026 65.6438 141.154 66.0756C141.247 66.3841 141.403 66.6698 141.612 66.9147C141.791 67.12 142.02 67.2759 142.276 67.3675C142.535 67.4568 142.806 67.5018 143.08 67.5007C143.355 67.5017 143.629 67.4567 143.89 67.3675C144.144 67.2726 144.372 67.1173 144.554 66.9147C144.77 66.6726 144.931 66.3863 145.025 66.0756C145.153 65.6437 145.212 65.1941 145.198 64.7437V59.9355H145.722V64.8036C145.737 65.3235 145.66 65.8419 145.497 66.3353C145.371 66.7013 145.167 67.0354 144.899 67.3143C144.659 67.5524 144.365 67.7284 144.042 67.827C143.394 68.0315 142.699 68.0315 142.051 67.827C141.73 67.7274 141.439 67.5515 141.201 67.3143C140.933 67.0365 140.731 66.7019 140.61 66.3353C140.45 65.8411 140.376 65.323 140.391 64.8036L140.43 59.9355Z" fill="white"/>
<path d="M149.154 59.9356H150.974C151.513 59.9237 152.05 60.0164 152.554 60.2086C152.984 60.3792 153.366 60.651 153.669 61.0011C153.974 61.361 154.2 61.7806 154.333 62.2331C154.486 62.7585 154.56 63.304 154.552 63.8514C154.559 64.4052 154.486 64.9572 154.333 65.4896C154.202 65.951 153.976 66.3798 153.669 66.7482C153.369 67.1013 152.989 67.3776 152.56 67.554C152.057 67.7517 151.52 67.8468 150.98 67.8337H149.154V59.9356ZM150.914 67.3676C151.387 67.3786 151.858 67.2901 152.295 67.1078C152.667 66.9467 152.995 66.6977 153.251 66.382C153.51 66.0557 153.7 65.6794 153.809 65.2765C153.933 64.8141 153.993 64.3368 153.988 63.858C153.993 63.3836 153.933 62.9107 153.809 62.4529C153.701 62.0536 153.511 61.6814 153.251 61.3607C152.993 61.0525 152.665 60.8105 152.295 60.6548C151.857 60.4767 151.387 60.3905 150.914 60.4017H149.705V67.3676H150.914Z" fill="white"/>
<path d="M157.514 59.9355H158.065V67.8603H157.514V59.9355Z" fill="white"/>
<path d="M164.225 68.0007C163.766 68.0083 163.311 67.908 162.898 67.7076C162.497 67.5109 162.145 67.2264 161.868 66.8752C161.566 66.4769 161.341 66.0251 161.204 65.5433C161.039 64.9928 160.958 64.4201 160.965 63.8451C160.958 63.2745 161.038 62.7061 161.204 62.1603C161.344 61.6941 161.569 61.2582 161.868 60.875C162.145 60.5286 162.497 60.2506 162.898 60.0626C163.309 59.8765 163.755 59.7803 164.206 59.7803C164.657 59.7803 165.102 59.8765 165.514 60.0626C165.914 60.2508 166.266 60.5287 166.543 60.875C166.842 61.2583 167.067 61.6942 167.207 62.1603C167.373 62.7062 167.453 63.2745 167.446 63.8451C167.453 64.4201 167.372 64.9928 167.207 65.5433C167.071 66.0251 166.845 66.4769 166.543 66.8752C166.266 67.2261 165.914 67.5105 165.514 67.7076C165.112 67.9029 164.672 68.0031 164.225 68.0007ZM164.225 67.4945C164.606 67.5092 164.985 67.4292 165.328 67.2615C165.66 67.0842 165.948 66.8338 166.171 66.5289C166.419 66.1854 166.604 65.7996 166.715 65.3901C166.849 64.9043 166.913 64.4022 166.908 63.8984C166.913 63.4012 166.848 62.9057 166.715 62.4267C166.604 62.0232 166.42 61.6438 166.171 61.3079C165.946 61.0124 165.658 60.7712 165.328 60.602C164.99 60.431 164.617 60.3442 164.239 60.3489C163.859 60.3447 163.483 60.4315 163.143 60.602C162.812 60.7572 162.519 60.9848 162.287 61.2679C162.037 61.6037 161.853 61.9831 161.742 62.3867C161.609 62.8658 161.545 63.3612 161.55 63.8585C161.544 64.3623 161.609 64.8644 161.742 65.3502C161.854 65.7597 162.038 66.1455 162.287 66.489C162.51 66.7952 162.801 67.0458 163.137 67.2215C163.472 67.4019 163.845 67.4979 164.225 67.5012V67.4945Z" fill="white"/>
<path d="M187 45.0049H0V46.3368H187V45.0049Z" fill="white"/>
</g>
<defs>
<clipPath id="clip0_2228_311">
<rect width="187" height="68" fill="white"/>
</clipPath>
</defs>
</svg>
